<?xml version="1.0" encoding="iso-8859-1"?>
<!-- Generator: Adobe Illustrator 19.0.0, SVG Export Plug-In . SVG Version: 6.00 Build 0)  -->
<svg version="1.1" id="Capa_1" xmlns="http://www.w3.org/2000/svg" xmlns:xlink="http://www.w3.org/1999/xlink" x="0px" y="0px"
	 viewBox="0 0 512 512" style="enable-background:new 0 0 512 512;" xml:space="preserve">
<path style="fill:#98C9F0;" d="M341.333,10.667H96c-11.782,0-21.333,9.551-21.333,21.333v448c0,11.782,9.551,21.333,21.333,21.333
	h320c11.782,0,21.333-9.551,21.333-21.333V106.667L341.333,10.667z"/>
<path style="fill:#5684A8;" d="M341.333,10.667V96c0,5.891,4.776,10.667,10.667,10.667h85.333L341.333,10.667z"/>
<path style="fill:#E6E7E8;" d="M405.333,314.667c1.413-36.797-27.208-67.803-64-69.333c-1.845,0-3.659,0.139-5.472,0.299
	c-17.644-49.997-72.478-76.225-122.476-58.581c-38.299,13.516-63.948,49.669-64.052,90.282c0,0.363,0.053,0.715,0.053,1.067
	c-28.866,5.862-47.515,34.014-41.653,62.88C112.781,366.137,134.636,384,160,384h192v-1.067
	C383.867,375.942,406.26,347.279,405.333,314.667L405.333,314.667z"/>
<g>
	<path style="fill:#3D3D3D;" d="M447.861,105.995c-0.053-0.935-0.236-1.857-0.544-2.741c-0.117-0.341-0.203-0.672-0.352-1.003
		c-0.519-1.161-1.242-2.219-2.133-3.125l-96-96c-0.906-0.892-1.965-1.614-3.125-2.133c-0.331-0.149-0.651-0.235-0.992-0.352
		c-0.888-0.289-1.809-0.461-2.741-0.512C341.76,0.117,341.557,0,341.333,0H96C78.327,0,64,14.327,64,32l0,0v448
		c0,17.673,14.327,32,32,32h320c17.673,0,32-14.327,32-32V106.667C448,106.432,447.883,106.229,447.861,105.995z M411.584,96
		h-48.917C356.776,96,352,91.224,352,85.333V36.416L411.584,96z M416,490.667H96c-5.891,0-10.667-4.776-10.667-10.667V32
		c0-5.891,4.776-10.667,10.667-10.667h234.667v64c0,17.673,14.327,32,32,32h64V480C426.667,485.891,421.891,490.667,416,490.667z"/>
	<path style="fill:#3D3D3D;" d="M342.528,235.232c-16.232-39.481-54.905-65.067-97.589-64.565
		c-56.172-0.813-102.686,43.431-104.683,99.573C114.07,278.805,96.264,303.117,96,330.667c0.585,35.874,30.098,64.505,65.973,64
		h171.456c2.133,0,4.032-0.107,6.304-0.235c44.01-1.956,78.101-39.218,76.145-83.228
		C414.092,271.003,382.641,238.428,342.528,235.232L342.528,235.232z M338.261,373.141c-1.643,0.096-3.2,0.192-4.853,0.192H161.973
		c-24.094,0.507-44.058-18.574-44.64-42.667c0.361-20.709,15.379-38.243,35.787-41.781c5.279-1.131,8.949-5.937,8.651-11.328
		c-0.096-1.845-0.192-3.701-0.192-5.557c0.997-45.08,38.277-80.857,83.36-80c36.007-0.222,68.126,22.597,79.765,56.672
		c1.376,4.377,5.396,7.384,9.984,7.467c32.33-0.596,59.023,25.129,59.619,57.46c0.586,31.771-24.277,58.21-56.024,59.575
		L338.261,373.141z"/>
	<path style="fill:#3D3D3D;" d="M128,64h21.333v21.333H128V64z"/>
	<path style="fill:#3D3D3D;" d="M170.667,64h42.667v21.333h-42.667V64z"/>
	<path style="fill:#3D3D3D;" d="M128,106.667h85.333V128H128V106.667z"/>
</g>
<g>
</g>
<g>
</g>
<g>
</g>
<g>
</g>
<g>
</g>
<g>
</g>
<g>
</g>
<g>
</g>
<g>
</g>
<g>
</g>
<g>
</g>
<g>
</g>
<g>
</g>
<g>
</g>
<g>
</g>
</svg>
